<svg id="visual" viewBox="0 0 900 600" width="900" height="600" xmlns="http://www.w3.org/2000/svg" xmlns:xlink="http://www.w3.org/1999/xlink" version="1.1"><rect x="0" y="0" width="900" height="600" fill="#001220"></rect><path d="M0 375L21.5 373.7C43 372.3 86 369.7 128.8 373.3C171.7 377 214.3 387 257.2 397.2C300 407.3 343 417.7 385.8 425.2C428.7 432.7 471.3 437.3 514.2 432.7C557 428 600 414 642.8 399.7C685.7 385.3 728.3 370.7 771.2 375C814 379.3 857 402.7 878.5 414.3L900 426L900 601L878.5 601C857 601 814 601 771.2 601C728.3 601 685.7 601 642.8 601C600 601 557 601 514.2 601C471.3 601 428.7 601 385.8 601C343 601 300 601 257.2 601C214.3 601 171.7 601 128.8 601C86 601 43 601 21.5 601L0 601Z" fill="#c62368"></path><path d="M0 427L21.5 423.5C43 420 86 413 128.8 413.8C171.7 414.7 214.3 423.3 257.2 421.7C300 420 343 408 385.8 402C428.7 396 471.3 396 514.2 404C557 412 600 428 642.8 437.5C685.7 447 728.3 450 771.2 443.5C814 437 857 421 878.5 413L900 405L900 601L878.5 601C857 601 814 601 771.2 601C728.3 601 685.7 601 642.8 601C600 601 557 601 514.2 601C471.3 601 428.7 601 385.8 601C343 601 300 601 257.2 601C214.3 601 171.7 601 128.8 601C86 601 43 601 21.5 601L0 601Z" fill="#d53867"></path><path d="M0 460L21.5 465.2C43 470.3 86 480.7 128.8 484.5C171.7 488.3 214.3 485.7 257.2 484.2C300 482.7 343 482.3 385.8 486.7C428.7 491 471.3 500 514.2 500.3C557 500.7 600 492.3 642.8 486.8C685.7 481.3 728.3 478.7 771.2 473C814 467.3 857 458.7 878.5 454.3L900 450L900 601L878.5 601C857 601 814 601 771.2 601C728.3 601 685.7 601 642.8 601C600 601 557 601 514.2 601C471.3 601 428.7 601 385.8 601C343 601 300 601 257.2 601C214.3 601 171.7 601 128.8 601C86 601 43 601 21.5 601L0 601Z" fill="#e34c67"></path><path d="M0 512L21.5 510.3C43 508.7 86 505.3 128.8 500.3C171.7 495.3 214.3 488.7 257.2 489.3C300 490 343 498 385.8 504.5C428.7 511 471.3 516 514.2 513C557 510 600 499 642.8 495.5C685.7 492 728.3 496 771.2 503.7C814 511.3 857 522.7 878.5 528.3L900 534L900 601L878.5 601C857 601 814 601 771.2 601C728.3 601 685.7 601 642.8 601C600 601 557 601 514.2 601C471.3 601 428.7 601 385.8 601C343 601 300 601 257.2 601C214.3 601 171.7 601 128.8 601C86 601 43 601 21.5 601L0 601Z" fill="#ef5f67"></path><path d="M0 553L21.5 551.2C43 549.3 86 545.7 128.8 547.5C171.7 549.3 214.3 556.7 257.2 559.5C300 562.3 343 560.7 385.8 559.3C428.7 558 471.3 557 514.2 559.2C557 561.3 600 566.7 642.8 565.5C685.7 564.3 728.3 556.7 771.2 554.5C814 552.3 857 555.7 878.5 557.3L900 559L900 601L878.5 601C857 601 814 601 771.2 601C728.3 601 685.7 601 642.8 601C600 601 557 601 514.2 601C471.3 601 428.7 601 385.8 601C343 601 300 601 257.2 601C214.3 601 171.7 601 128.8 601C86 601 43 601 21.5 601L0 601Z" fill="#fa7268"></path></svg>