<svg id="visual" viewBox="0 0 900 600" width="900" height="600" xmlns="http://www.w3.org/2000/svg" xmlns:xlink="http://www.w3.org/1999/xlink" version="1.1"><g stroke-width="1" stroke-linejoin="bevel"><path d="M387 288L265 322L396 384Z" fill="#e8484a" stroke="#e8484a"></path><path d="M236 191L231 316L265 322Z" fill="#492b5d" stroke="#492b5d"></path><path d="M265 322L267 436L396 384Z" fill="#001122" stroke="#001122"></path><path d="M231 316L267 436L265 322Z" fill="#e8484a" stroke="#e8484a"></path><path d="M267 436L333 472L396 384Z" fill="#492b5d" stroke="#492b5d"></path><path d="M333 472L409 474L396 384Z" fill="#001122" stroke="#001122"></path><path d="M498 203L388 165L387 288Z" fill="#d1375b" stroke="#d1375b"></path><path d="M231 316L181 411L267 436Z" fill="#492b5d" stroke="#492b5d"></path><path d="M267 436L297 600L333 472Z" fill="#6c2d67" stroke="#6c2d67"></path><path d="M387 288L336 168L265 322Z" fill="#29254d" stroke="#29254d"></path><path d="M336 168L236 191L265 322Z" fill="#e8484a" stroke="#e8484a"></path><path d="M231 316L81 330L181 411Z" fill="#001122" stroke="#001122"></path><path d="M387 288L388 165L336 168Z" fill="#ff7f06" stroke="#ff7f06"></path><path d="M526 298L387 288L396 384Z" fill="#29254d" stroke="#29254d"></path><path d="M409 474L527 378L396 384Z" fill="#902e6a" stroke="#902e6a"></path><path d="M527 378L526 298L396 384Z" fill="#ff7f06" stroke="#ff7f06"></path><path d="M181 411L187 469L267 436Z" fill="#492b5d" stroke="#492b5d"></path><path d="M418 600L516 507L409 474Z" fill="#902e6a" stroke="#902e6a"></path><path d="M526 298L498 203L387 288Z" fill="#001122" stroke="#001122"></path><path d="M336 168L293 122L236 191Z" fill="#101c38" stroke="#101c38"></path><path d="M417 82L293 122L336 168Z" fill="#902e6a" stroke="#902e6a"></path><path d="M417 82L336 168L388 165Z" fill="#d1375b" stroke="#d1375b"></path><path d="M418 600L409 474L333 472Z" fill="#001122" stroke="#001122"></path><path d="M409 474L516 507L527 378Z" fill="#29254d" stroke="#29254d"></path><path d="M526 298L568 237L498 203Z" fill="#101c38" stroke="#101c38"></path><path d="M614 310L568 237L526 298Z" fill="#d1375b" stroke="#d1375b"></path><path d="M614 310L526 298L527 378Z" fill="#001122" stroke="#001122"></path><path d="M103 227L231 316L236 191Z" fill="#101c38" stroke="#101c38"></path><path d="M103 227L81 330L231 316Z" fill="#d1375b" stroke="#d1375b"></path><path d="M181 411L81 400L187 469Z" fill="#d1375b" stroke="#d1375b"></path><path d="M206 99L103 227L236 191Z" fill="#001122" stroke="#001122"></path><path d="M187 469L297 600L267 436Z" fill="#101c38" stroke="#101c38"></path><path d="M81 330L81 400L181 411Z" fill="#6c2d67" stroke="#6c2d67"></path><path d="M187 469L182 600L297 600Z" fill="#902e6a" stroke="#902e6a"></path><path d="M297 600L418 600L333 472Z" fill="#902e6a" stroke="#902e6a"></path><path d="M533 127L417 82L498 203Z" fill="#902e6a" stroke="#902e6a"></path><path d="M498 203L417 82L388 165Z" fill="#492b5d" stroke="#492b5d"></path><path d="M272 0L206 99L293 122Z" fill="#29254d" stroke="#29254d"></path><path d="M293 122L206 99L236 191Z" fill="#6c2d67" stroke="#6c2d67"></path><path d="M632 361L614 310L527 378Z" fill="#001122" stroke="#001122"></path><path d="M664 174L533 127L568 237Z" fill="#902e6a" stroke="#902e6a"></path><path d="M568 237L533 127L498 203Z" fill="#6c2d67" stroke="#6c2d67"></path><path d="M624 521L632 361L527 378Z" fill="#f86133" stroke="#f86133"></path><path d="M89 532L182 600L187 469Z" fill="#492b5d" stroke="#492b5d"></path><path d="M418 600L496 600L516 507Z" fill="#001122" stroke="#001122"></path><path d="M624 521L667 384L632 361Z" fill="#f86133" stroke="#f86133"></path><path d="M81 400L89 532L187 469Z" fill="#492b5d" stroke="#492b5d"></path><path d="M624 521L527 378L516 507Z" fill="#001122" stroke="#001122"></path><path d="M632 361L664 272L614 310Z" fill="#902e6a" stroke="#902e6a"></path><path d="M614 310L664 272L568 237Z" fill="#101c38" stroke="#101c38"></path><path d="M667 384L664 272L632 361Z" fill="#29254d" stroke="#29254d"></path><path d="M581 600L624 521L516 507Z" fill="#29254d" stroke="#29254d"></path><path d="M89 532L116 600L182 600Z" fill="#f86133" stroke="#f86133"></path><path d="M103 227L0 288L81 330Z" fill="#6c2d67" stroke="#6c2d67"></path><path d="M81 330L0 436L81 400Z" fill="#ff7f06" stroke="#ff7f06"></path><path d="M81 400L0 475L89 532Z" fill="#101c38" stroke="#101c38"></path><path d="M0 236L0 288L103 227Z" fill="#f86133" stroke="#f86133"></path><path d="M417 82L272 0L293 122Z" fill="#29254d" stroke="#29254d"></path><path d="M206 99L97 84L103 227Z" fill="#f86133" stroke="#f86133"></path><path d="M417 0L272 0L417 82Z" fill="#6c2d67" stroke="#6c2d67"></path><path d="M0 288L0 436L81 330Z" fill="#101c38" stroke="#101c38"></path><path d="M89 532L0 600L116 600Z" fill="#101c38" stroke="#101c38"></path><path d="M513 0L417 0L417 82Z" fill="#b22f66" stroke="#b22f66"></path><path d="M173 0L97 84L206 99Z" fill="#492b5d" stroke="#492b5d"></path><path d="M0 87L0 236L103 227Z" fill="#e8484a" stroke="#e8484a"></path><path d="M496 600L581 600L516 507Z" fill="#001122" stroke="#001122"></path><path d="M0 436L0 475L81 400Z" fill="#b22f66" stroke="#b22f66"></path><path d="M664 272L664 174L568 237Z" fill="#29254d" stroke="#29254d"></path><path d="M533 127L513 0L417 82Z" fill="#f86133" stroke="#f86133"></path><path d="M714 106L664 174L778 227Z" fill="#ff7f06" stroke="#ff7f06"></path><path d="M272 0L173 0L206 99Z" fill="#101c38" stroke="#101c38"></path><path d="M620 77L513 0L533 127Z" fill="#ff7f06" stroke="#ff7f06"></path><path d="M664 174L620 77L533 127Z" fill="#d1375b" stroke="#d1375b"></path><path d="M713 600L703 475L624 521Z" fill="#001122" stroke="#001122"></path><path d="M624 521L703 475L667 384Z" fill="#492b5d" stroke="#492b5d"></path><path d="M667 384L788 283L664 272Z" fill="#101c38" stroke="#101c38"></path><path d="M97 84L0 87L103 227Z" fill="#101c38" stroke="#101c38"></path><path d="M84 0L0 87L97 84Z" fill="#492b5d" stroke="#492b5d"></path><path d="M0 475L0 600L89 532Z" fill="#6c2d67" stroke="#6c2d67"></path><path d="M173 0L84 0L97 84Z" fill="#b22f66" stroke="#b22f66"></path><path d="M778 227L664 174L664 272Z" fill="#e8484a" stroke="#e8484a"></path><path d="M664 174L714 106L620 77Z" fill="#f86133" stroke="#f86133"></path><path d="M620 77L625 0L513 0Z" fill="#492b5d" stroke="#492b5d"></path><path d="M691 0L625 0L620 77Z" fill="#902e6a" stroke="#902e6a"></path><path d="M834 435L788 283L667 384Z" fill="#e8484a" stroke="#e8484a"></path><path d="M788 283L778 227L664 272Z" fill="#6c2d67" stroke="#6c2d67"></path><path d="M581 600L713 600L624 521Z" fill="#29254d" stroke="#29254d"></path><path d="M703 475L834 435L667 384Z" fill="#492b5d" stroke="#492b5d"></path><path d="M84 0L0 0L0 87Z" fill="#b22f66" stroke="#b22f66"></path><path d="M798 61L691 0L714 106Z" fill="#e8484a" stroke="#e8484a"></path><path d="M714 106L691 0L620 77Z" fill="#101c38" stroke="#101c38"></path><path d="M900 177L798 61L778 227Z" fill="#6c2d67" stroke="#6c2d67"></path><path d="M831 494L834 435L703 475Z" fill="#001122" stroke="#001122"></path><path d="M713 600L831 494L703 475Z" fill="#d1375b" stroke="#d1375b"></path><path d="M778 227L798 61L714 106Z" fill="#902e6a" stroke="#902e6a"></path><path d="M900 288L778 227L788 283Z" fill="#e8484a" stroke="#e8484a"></path><path d="M713 600L821 600L831 494Z" fill="#29254d" stroke="#29254d"></path><path d="M900 418L900 288L834 435Z" fill="#d1375b" stroke="#d1375b"></path><path d="M834 435L900 288L788 283Z" fill="#101c38" stroke="#101c38"></path><path d="M900 418L834 435L900 503Z" fill="#ff7f06" stroke="#ff7f06"></path><path d="M900 503L834 435L831 494Z" fill="#492b5d" stroke="#492b5d"></path><path d="M900 0L793 0L798 61Z" fill="#b22f66" stroke="#b22f66"></path><path d="M798 61L793 0L691 0Z" fill="#b22f66" stroke="#b22f66"></path><path d="M821 600L900 503L831 494Z" fill="#902e6a" stroke="#902e6a"></path><path d="M900 288L900 177L778 227Z" fill="#ff7f06" stroke="#ff7f06"></path><path d="M821 600L900 600L900 503Z" fill="#d1375b" stroke="#d1375b"></path><path d="M900 177L900 67L798 61Z" fill="#492b5d" stroke="#492b5d"></path><path d="M900 67L900 0L798 61Z" fill="#f86133" stroke="#f86133"></path></g></svg>